<svg xmlns="http://www.w3.org/2000/svg" fill="none" viewBox="0 0 24 24" height="24" width="24"><g id="file-code-1--code-files-angle-programming-file-bracket"><path id="Subtract" fill="#0ca7e9" fill-rule="evenodd" d="M6.356571428571429 1.4914285714285713A85.54285714285713 85.54285714285713 0 0 1 12.558857142857141 1.2857142857142856c0.7748571428571428 0 1.5 0.006857142857142857 2.1942857142857144 0.022285714285714284 0.864 0.018857142857142854 1.7108571428571429 0.3051428571428571 2.4051428571428572 0.84 2.0502857142857143 1.584 3.3051428571428567 2.921142857142857 4.854857142857142 5.031428571428571 0.5022857142857142 0.684 0.7748571428571428 1.5034285714285713 0.7954285714285714 2.3417142857142856a115.33028571428571 115.33028571428571 0 0 1 -0.1817142857142857 9.961714285714285 4.153714285714286 4.153714285714286 0 0 1 -3.864 3.882857142857143c-1.4777142857142855 0.10285714285714284 -2.9177142857142853 0.1662857142857143 -4.539428571428571 0.192a11.742857142857142 11.742857142857142 0 0 0 0.8982857142857142 -1.1434285714285715 6.565714285714286 6.565714285714286 0 0 0 0.5708571428571428 -1.0062857142857142c0.15942857142857142 -0.35828571428571426 0.40114285714285713 -0.9994285714285713 0.40114285714285713 -1.8 0 -0.7988571428571428 -0.2417142857142857 -1.44 -0.40114285714285713 -1.798285714285714a6.581142857142857 6.581142857142857 0 0 0 -0.5708571428571428 -1.0079999999999998 12.725142857142856 12.725142857142856 0 0 0 -1.1468571428571428 -1.4177142857142855 22.77942857142857 22.77942857142857 0 0 0 -1.4057142857142855 -1.3954285714285712l-0.029142857142857144 -0.027428571428571427 -0.010285714285714285 -0.008571428571428572 -0.006857142857142857 -0.005142857142857143a3.4285714285714284 3.4285714285714284 0 0 0 -2.285142857142857 -0.8742857142857142H4.448571428571428a3.4285714285714284 3.4285714285714284 0 0 0 -2.166857142857143 0.7714285714285714 116.04685714285714 116.04685714285714 0 0 1 0.20914285714285713 -8.470285714285714A4.153714285714286 4.153714285714286 0 0 1 6.356571428571429 1.4914285714285713Z" clip-rule="evenodd" stroke-width="1.7142857142857142"></path><path id="Union" fill="#000000" fill-rule="evenodd" d="M5.406857142857143 15.646285714285714a1.2857142857142856 1.2857142857142856 0 0 0 -1.8154285714285712 -0.10285714285714284l-0.0034285714285714284 0.005142857142857143 -0.006857142857142857 0.005142857142857143 -0.022285714285714284 0.022285714285714284a14.70342857142857 14.70342857142857 0 0 0 -0.3771428571428571 0.3531428571428571c-0.24000000000000002 0.2297142857142857 -0.5657142857142857 0.5485714285714286 -0.8914285714285715 0.9051428571428571a10.628571428571428 10.628571428571428 0 0 0 -0.9531428571428572 1.1725714285714286 4.542857142857143 4.542857142857143 0 0 0 -0.3857142857142857 0.6771428571428572 2.2902857142857145 2.2902857142857145 0 0 0 -0.216 0.9257142857142857c0 0.372 0.11485714285714285 0.6977142857142856 0.216 0.9257142857142857 0.108 0.24000000000000002 0.24685714285714283 0.4714285714285714 0.3857142857142857 0.6754285714285714 0.2794285714285714 0.41142857142857137 0.6291428571428571 0.8228571428571427 0.9514285714285715 1.1725714285714286a20.65028571428571 20.65028571428571 0 0 0 1.2685714285714285 1.2582857142857142l0.024 0.022285714285714284 0.006857142857142857 0.005142857142857143 0.0034285714285714284 0.0034285714285714284a1.2857142857142856 1.2857142857142856 0 0 0 1.7142857142857142 -1.9165714285714286l-0.0034285714285714284 -0.0034285714285714284 -0.017142857142857144 -0.015428571428571427 -0.06857142857142857 -0.06342857142857142a18.95142857142857 18.95142857142857 0 0 1 -1.0354285714285714 -1.0319999999999998 8.13942857142857 8.13942857142857 0 0 1 -0.7165714285714285 -0.8742857142857142 2.8217142857142856 2.8217142857142856 0 0 1 -0.09942857142857142 -0.15942857142857142c0.02571428571428571 -0.04285714285714286 0.05828571428571429 -0.096 0.09942857142857142 -0.156 0.17657142857142855 -0.26057142857142856 0.432 -0.5657142857142857 0.7165714285714285 -0.8742857142857142a18.157714285714285 18.157714285714285 0 0 1 1.0354285714285714 -1.0337142857142856l0.06857142857142857 -0.06342857142857142 0.017142857142857144 -0.015428571428571427 0.0034285714285714284 -0.0034285714285714284a1.2857142857142856 1.2857142857142856 0 0 0 0.10285714285714284 -1.8154285714285712Zm3.8742857142857137 0a1.2857142857142856 1.2857142857142856 0 0 1 1.8137142857142856 -0.10285714285714284c0.8262857142857142 0.7405714285714285 1.632 1.5445714285714285 2.256 2.4634285714285715 0.13885714285714285 0.20571428571428568 0.2777142857142857 0.4354285714285714 0.3857142857142857 0.6771428571428572 0.10114285714285713 0.22628571428571428 0.216 0.5519999999999999 0.216 0.9257142857142857 0 0.372 -0.11485714285714285 0.6977142857142856 -0.216 0.9257142857142857 -0.3102857142857143 0.6942857142857143 -0.828 1.2925714285714285 -1.3371428571428572 1.848 -0.41142857142857137 0.44571428571428573 -0.8434285714285714 0.8742857142857142 -1.2942857142857143 1.2805714285714285l-0.006857142857142857 0.005142857142857143 0 0.0034285714285714284a1.2857142857142856 1.2857142857142856 0 0 1 -1.7159999999999997 -1.9165714285714286l0.0034285714285714284 -0.0034285714285714284c0.3891428571428571 -0.3531428571428571 0.7645714285714286 -0.7234285714285713 1.1211428571428572 -1.1108571428571428 0.2948571428571428 -0.32057142857142856 0.5948571428571428 -0.6548571428571428 0.816 -1.0337142857142856a6.226285714285714 6.226285714285714 0 0 0 -0.816 -1.0319999999999998 18.116571428571426 18.116571428571426 0 0 0 -1.1211428571428572 -1.1108571428571428 1.2994285714285714 1.2994285714285714 0 0 1 -0.10628571428571428 -1.8188571428571427Z" clip-rule="evenodd" stroke-width="1.7142857142857142"></path></g></svg>