<svg xmlns="http://www.w3.org/2000/svg" fill="none" viewBox="0 0 24 24" height="24" width="24"><g id="new-file--empty-common-file-content"><path id="Union" fill="#0ca7e9" fill-rule="evenodd" d="M12.00342857142857 0.8571428571428571C9.658285714285714 0.8571428571428571 7.762285714285714 0.9274285714285715 5.801142857142857 1.0628571428571427A4.153714285714286 4.153714285714286 0 0 0 1.9371428571428568 4.945714285714285 112.80342857142858 112.80342857142858 0 0 0 1.7177142857142855 12c0 2.417142857142857 0.07542857142857141 4.776 0.21942857142857142 7.054285714285714a4.153714285714286 4.153714285714286 0 0 0 3.864 3.882857142857143c1.9611428571428569 0.13542857142857143 3.8571428571428568 0.20571428571428568 6.202285714285714 0.20571428571428568 2.3468571428571425 0 4.242857142857143 -0.07028571428571428 6.204 -0.20571428571428568a4.153714285714286 4.153714285714286 0 0 0 3.864 -3.882857142857143 112.80685714285714 112.80685714285714 0 0 0 0.1817142857142857 -9.959999999999999 4.133142857142857 4.133142857142857 0 0 0 -0.7954285714285714 -2.3434285714285714c-1.548 -2.1102857142857143 -2.8045714285714283 -3.4474285714285715 -4.854857142857142 -5.029714285714285a4.0765714285714285 4.0765714285714285 0 0 0 -2.403428571428571 -0.84A100.22571428571429 100.22571428571429 0 0 0 12.005142857142857 0.8571428571428571Z" clip-rule="evenodd" stroke-width="1.7142857142857142"></path><path id="Intersect" fill="#000000" fill-rule="evenodd" d="M22.282285714285713 10.748571428571427c-1.4708571428571426 -2.045142857142857 -3.9034285714285715 -2.3811428571428572 -5.881714285714286 -2.3674285714285714 -1.421142857142857 0.010285714285714285 -2.569714285714286 -1.0371428571428571 -2.569714285714286 -2.4565714285714284V0.8725714285714286l0.36857142857142855 0.008571428571428572c0.864 0.017142857142857144 1.709142857142857 0.3051428571428571 2.403428571428571 0.84 2.0502857142857143 1.5822857142857143 3.306857142857143 2.9194285714285715 4.854857142857142 5.029714285714285 0.5022857142857142 0.684 0.7748571428571428 1.5034285714285713 0.7954285714285714 2.3417142857142856 0.013714285714285714 0.5485714285714286 0.024 1.1005714285714285 0.030857142857142854 1.656Z" clip-rule="evenodd" stroke-width="1.7142857142857142"></path></g></svg>