<svg xmlns="http://www.w3.org/2000/svg" fill="none" viewBox="0 0 24 24" height="24" width="24"><g id="text-file--text-common-file"><path id="Union" fill="#0ca7e9" fill-rule="evenodd" d="M12 0.8571428571428571C9.654857142857141 0.8571428571428571 7.758857142857142 0.9274285714285715 5.795999999999999 1.0628571428571427a4.153714285714286 4.153714285714286 0 0 0 -3.864 3.882857142857143A112.81714285714285 112.81714285714285 0 0 0 1.7142857142857142 12c0 2.417142857142857 0.07542857142857141 4.776 0.2177142857142857 7.054285714285714a4.153714285714286 4.153714285714286 0 0 0 3.864 3.882857142857143c1.9628571428571429 0.13542857142857143 3.8571428571428568 0.20571428571428568 6.204 0.20571428571428568 2.345142857142857 0 4.241142857142857 -0.07028571428571428 6.204 -0.20571428571428568a4.153714285714286 4.153714285714286 0 0 0 3.864 -3.882857142857143 112.80685714285714 112.80685714285714 0 0 0 0.1817142857142857 -9.959999999999999 4.133142857142857 4.133142857142857 0 0 0 -0.7954285714285714 -2.3434285714285714c-1.5497142857142856 -2.1102857142857143 -2.8045714285714283 -3.4474285714285715 -4.854857142857142 -5.029714285714285A4.0765714285714285 4.0765714285714285 0 0 0 14.194285714285712 0.8811428571428571 100.22742857142856 100.22742857142856 0 0 0 12 0.8571428571428571Z" clip-rule="evenodd" stroke-width="1.7142857142857142"></path><path id="Union_2" fill="#000000" fill-rule="evenodd" d="M8.732571428571429 5.785714285714286a1.0714285714285714 1.0714285714285714 0 1 0 0 2.142857142857143h3.942857142857142a1.0714285714285714 1.0714285714285714 0 0 0 0 -2.142857142857143h-3.942857142857142Zm0 10.152a1.0714285714285714 1.0714285714285714 0 1 0 0 2.142857142857143h6.514285714285713a1.0714285714285714 1.0714285714285714 0 1 0 0 -2.142857142857143h-6.514285714285713Zm0 -4.981714285714285a1.0714285714285714 1.0714285714285714 0 0 0 0 2.142857142857143h6.534857142857142a1.0714285714285714 1.0714285714285714 0 1 0 0 -2.142857142857143H8.732571428571429Z" clip-rule="evenodd" stroke-width="1.7142857142857142"></path></g></svg>