<svg xmlns="http://www.w3.org/2000/svg" fill="none" viewBox="0 0 24 24" height="24" width="24"><g id="zip-folder--zip-folder-compact"><path id="Union" fill="#e9de0c" fill-rule="evenodd" d="M9.418285714285714 1.0594285714285714A46.457142857142856 46.457142857142856 0 0 0 3.394285714285714 1.1177142857142857C2.142857142857143 1.205142857142857 1.1657142857142857 2.189142857142857 1.0268571428571427 3.4045714285714284 0.444 8.480571428571428 0.24685714285714283 13.602857142857141 0.8571428571428571 18.737142857142857c0.2571428571428571 2.1479999999999997 2.009142857142857 3.6685714285714286 4.042285714285714 3.8897142857142857 4.8 0.5228571428571428 9.527999999999999 0.5091428571428571 14.322857142857142 -0.013714285714285714a4.443428571428571 4.443428571428571 0 0 0 3.9222857142857137 -3.876c0.37885714285714284 -3.173142857142857 0.48000000000000004 -6.421714285714286 0.2451428571428571 -10.388571428571428a4.1245714285714286 4.1245714285714286 0 0 0 -3.7765714285714282 -3.869142857142857c-2.0399999999999996 -0.168 -3.5417142857142854 -0.19885714285714284 -5.763428571428571 -0.24342857142857138l-1.0285714285714285 -0.02057142857142857a0.8537142857142856 0.8537142857142856 0 0 1 -0.7834285714285714 -0.5571428571428572l-0.34285714285714286 -0.9274285714285715A2.556 2.556 0 0 0 9.418285714285714 1.0594285714285714Z" clip-rule="evenodd" stroke-width="1.7142857142857142"></path><path id="Union_2" fill="#000000" fill-rule="evenodd" d="M16.96457142857143 5.331428571428571a1.0714285714285714 1.0714285714285714 0 0 0 -2.142857142857143 0v3.126857142857143h-1.0679999999999998a1.0714285714285714 1.0714285714285714 0 0 0 0 2.142857142857143h1.0679999999999998v3h-1.0679999999999998a1.0714285714285714 1.0714285714285714 0 0 0 0 2.142857142857143h4.285714285714286a1.0714285714285714 1.0714285714285714 0 1 0 0 -2.142857142857143h-1.0748571428571427v-3h1.0748571428571427a1.0714285714285714 1.0714285714285714 0 1 0 0 -2.142857142857143h-1.0748571428571427V5.329714285714285Z" clip-rule="evenodd" stroke-width="1.7142857142857142"></path></g></svg>